<?xml version="1.0" encoding="UTF-8"?>
<svg width="166px" height="118px" viewBox="0 0 166 118" version="1.1" xmlns="http://www.w3.org/2000/svg" xmlns:xlink="http://www.w3.org/1999/xlink">
    <!-- Generator: Sketch 55.2 (78181) - https://sketchapp.com -->
    <title>ios-game-controller-b</title>
    <desc>Created with Sketch.</desc>
    <g id="Page-1" stroke="none" stroke-width="1" fill="none" fill-rule="evenodd" opacity="0.05">
        <g id="website-1" transform="translate(-276.000000, -1830.000000)" fill="#000000" fill-rule="nonzero">
            <g id="ios-game-controller-b" transform="translate(276.000000, 1830.000000)">
                <path d="M38.5089286,40.0003857 C34.3598602,40.0003857 31,43.3626475 31,47.49865 C31,51.636581 34.3598602,55 38.5089286,55 C42.6393634,55 46,51.636581 46,47.4990357 C46,43.3622618 42.6397516,40 38.5089286,40 L38.5089286,40.0003857 Z" id="Shape"></path>
                <path d="M160.917556,56.3693375 C153.077709,23.746025 144.750232,6.4074 128.141597,1.488275 C124.523292,0.4189 121.443378,0 118.600238,0 C108.374495,0 101.208285,5.41435625 82.9989251,5.41435625 C64.7784488,5.41435625 57.6170564,0 47.4050228,0 C44.5644768,0 41.4897506,0.41853125 37.8740385,1.488275 C21.2479882,6.4074 12.9212531,23.746025 5.09622683,56.3693375 C-2.75288446,88.994125 -1.3274239,112.553563 7.94084881,116.951275 C9.45005102,117.668125 10.99149,118 12.556273,118 C20.5947293,118 29.2823686,109.209738 37.6268895,98.8076687 C47.1315656,86.96895 49.5252426,86.65625 78.4876221,86.65625 L87.5076342,86.65625 C116.464085,86.65625 118.865543,86.9682125 128.371331,98.8076687 C136.718075,109.209 145.404974,117.984144 153.4438,117.984144 C155.009695,117.984144 156.550393,117.659644 158.059595,116.943162 C167.324533,112.54545 168.749623,88.9937563 160.916445,56.3693375 L160.917556,56.3693375 Z M38.2523581,61.8146687 C30.2339108,61.8146687 23.7146612,55.2664062 23.7146612,47.2036875 C23.7146612,39.1501875 30.2339108,32.5853313 38.2523581,32.5853313 C46.2763634,32.5853313 52.7959835,39.1501875 52.7959835,47.2036875 C52.7959835,55.2664062 46.2767339,61.8146687 38.2523581,61.8146687 Z M102.296927,54.626625 C98.1995148,54.626625 94.8580011,51.3005 94.8580011,47.2121687 C94.8580011,43.1227313 98.2002559,39.7988188 102.296927,39.7988188 C106.421017,39.7988188 109.762531,43.1223625 109.762531,47.2118 C109.762531,51.3005 106.421388,54.6262562 102.296927,54.6262562 L102.296927,54.626625 Z M118.568001,70.8 C114.470589,70.8 111.137598,67.4996875 111.137598,63.4191 C111.137598,59.3049562 114.470589,56.0050125 118.568001,56.0050125 C122.69802,56.0050125 126.033605,59.305325 126.033605,63.4191 C126.033605,67.4993187 122.69802,70.8 118.568001,70.8 Z M118.568001,38.4200625 C114.470589,38.4200625 111.137598,35.1038937 111.137598,31.0144562 C111.137598,26.9235437 114.470589,23.6 118.568001,23.6 C122.69802,23.6 126.033605,26.9239125 126.033605,31.0144562 C126.033605,35.1038937 122.69802,38.4200625 118.568001,38.4200625 Z M134.856862,54.626625 C130.741664,54.626625 127.408302,51.3005 127.408302,47.2121687 C127.408302,43.1227312 130.741294,39.7988187 134.856121,39.7988187 C138.954273,39.7988187 142.286894,43.1223625 142.286894,47.2118 C142.286894,51.3005 138.954273,54.6262562 134.856491,54.6262562 L134.856862,54.626625 Z" id="Shape"></path>
            </g>
        </g>
    </g>
</svg>