<?xml version="1.0" encoding="UTF-8"?>
<svg width="111px" height="160px" viewBox="0 0 111 160" version="1.1" xmlns="http://www.w3.org/2000/svg" xmlns:xlink="http://www.w3.org/1999/xlink">
    <!-- Generator: Sketch 55.2 (78181) - https://sketchapp.com -->
    <title>ios-bulb</title>
    <desc>Created with Sketch.</desc>
    <g id="Page-1" stroke="none" stroke-width="1" fill="none" fill-rule="evenodd" opacity="0.046205">
        <g id="website-1" transform="translate(-1162.000000, -1484.000000)" fill="#000000" fill-rule="nonzero">
            <g id="ios-bulb" transform="translate(1162.000000, 1484.000000)">
                <path d="M111,54.1923077 C111,24.2307692 85.5239583,0 55.5,0 C25.4760417,0 0,24.2692308 0,54.1923077 C0,66.1153846 5.0875,76.9230769 11.6395833,86.1538462 L11.5239583,86.1538462 C15.725,91.9230769 19.771875,96.8076923 23.6645833,103.461538 C32.14375,118 30.8333333,132.038462 30.871875,134.807692 L30.871875,135.384615 L43.2052083,135.384615 L43.2052083,86.1153846 L30.8333333,61.5384615 L37.23125,61.5384615 L49.3333333,86.1153846 L49.3333333,135.384615 L61.6666667,135.384615 L61.6666667,86.1153846 L73.76875,61.5384615 L80.1666667,61.5384615 L67.8333333,86.1153846 L67.8333333,135.384615 L80.1666667,135.384615 L80.1666667,134.807692 C80.1666667,131.384615 78.7791667,118 87.2583333,103.461538 C91.1510417,96.8076923 95.1979167,91.9230769 99.3989583,86.1538462 L99.3604167,86.1538462 C105.9125,76.9230769 111,66.1153846 111,54.1923077 L111,54.1923077 Z M43.1666667,153.846154 L67.8333333,153.846154 L67.8333333,160 L43.1666667,160 L43.1666667,153.846154 Z M37,141.538462 L74,141.538462 L74,147.692308 L37,147.692308 L37,141.538462 Z" id="Shape"></path>
            </g>
        </g>
    </g>
</svg>