<?xml version="1.0" encoding="UTF-8"?>
<svg width="159px" height="147px" viewBox="0 0 159 147" version="1.1" xmlns="http://www.w3.org/2000/svg" xmlns:xlink="http://www.w3.org/1999/xlink">
    <!-- Generator: Sketch 55.2 (78181) - https://sketchapp.com -->
    <title>ios-leaf</title>
    <desc>Created with Sketch.</desc>
    <g id="Page-1" stroke="none" stroke-width="1" fill="none" fill-rule="evenodd" opacity="0.054141">
        <g id="website-1" transform="translate(-1132.000000, -1808.000000)" fill="#000000" fill-rule="nonzero">
            <g id="ios-leaf" transform="translate(1132.000000, 1808.000000)">
                <path d="M155.136423,122.012723 C135.337692,118.950123 133.847054,116.00237 133.847054,116.00237 C139.809606,87.6733177 125.285441,58.1575076 104.68406,41.1217937 C77.2410327,18.4585518 35.5413908,34.9200282 3.05312709,0.465775224 C-4.51472727,-7.57355046 -0.119256305,90.6210704 40.5484055,127.831664 C70.2847221,155.012241 105.295604,146.666655 114.889197,142.225885 C123.603696,138.167939 129.680912,129.248116 129.680912,129.248116 C145.542829,134.224842 153.378234,133.918582 153.378234,133.918582 C158.958571,134.607667 161.786961,123.046351 155.136423,122.012723 Z M120.049098,123.314328 C67.9914329,107.656784 27.705986,51.5346346 27.705986,51.5346346 C27.705986,51.5346346 63.2137471,93.9133657 123.795403,114.01168 C123.833025,117.112563 122.036615,121.553333 120.049098,123.314328 Z" id="Shape"></path>
            </g>
        </g>
    </g>
</svg>