<?xml version="1.0" encoding="UTF-8"?>
<svg width="168px" height="126px" viewBox="0 0 168 126" version="1.1" xmlns="http://www.w3.org/2000/svg" xmlns:xlink="http://www.w3.org/1999/xlink">
    <!-- Generator: Sketch 55.2 (78181) - https://sketchapp.com -->
    <title>ios-camera</title>
    <desc>Created with Sketch.</desc>
    <g id="Page-1" stroke="none" stroke-width="1" fill="none" fill-rule="evenodd" opacity="0.05">
        <g id="website-1" transform="translate(-700.000000, -1824.000000)" fill="#000000" fill-rule="nonzero">
            <g id="ios-camera" transform="translate(700.000000, 1824.000000)">
                <path d="M154.65625,21 L127.6625,21 C113.61875,5.25 109.2,0 103.81875,0 L65.1,0 C59.71875,0 55.3875,5.25 41.25625,21 L35.4375,21 L35.4375,14 L20.5625,14 L20.5625,21 L14.65625,21 C6.95625,21 0,26.775 0,34.43125 L0,111.43125 C0,119.0875 6.95625,126 14.65625,126 L154.65625,126 C162.35625,126 168,119.0875 168,111.43125 L168,34.43125 C168,26.775 162.35625,21 154.65625,21 Z M84,108.71875 C63.39375,108.71875 46.59375,91.91875 46.59375,71.3125 C46.59375,50.70625 63.39375,33.90625 84,33.90625 C104.60625,33.90625 121.40625,50.70625 121.40625,71.3125 C121.40625,91.91875 104.60625,108.71875 84,108.71875 Z M133.4375,42.4375 L126,42.4375 L126,35 L133.4375,35 L133.4375,42.4375 Z" id="Shape"></path>
                <path d="M84.5,41 C67.6482014,41 54,54.6482014 54,71.5 C54,88.3517986 67.6482014,102 84.5,102 C101.351799,102 115,88.3517986 115,71.5 C115,54.6482014 101.351799,41 84.5,41 Z M84.5,85.5431655 C76.7323741,85.5431655 70.4568345,79.2676259 70.4568345,71.5 C70.4568345,63.7323741 76.7323741,57.4568345 84.5,57.4568345 C92.2676259,57.4568345 98.5431655,63.7323741 98.5431655,71.5 C98.5431655,79.2676259 92.2676259,85.5431655 84.5,85.5431655 Z" id="Shape"></path>
            </g>
        </g>
    </g>
</svg>