<?xml version="1.0" encoding="UTF-8"?>
<svg width="137px" height="137px" viewBox="0 0 137 137" version="1.1" xmlns="http://www.w3.org/2000/svg" xmlns:xlink="http://www.w3.org/1999/xlink">
    <!-- Generator: Sketch 55.2 (78181) - https://sketchapp.com -->
    <title>ios-link</title>
    <desc>Created with Sketch.</desc>
    <g id="Page-1" stroke="none" stroke-width="1" fill="none" fill-rule="evenodd" opacity="0.074855">
        <g id="website-1" transform="translate(-729.000000, -1476.000000)" fill="#000000" fill-rule="nonzero">
            <g id="ios-link" transform="translate(729.000000, 1476.000000)">
                <path d="M74.3695413,96.6937972 C74.3695413,96.6937972 75.8722936,96.9943405 80.013211,96.9943405 C84.1541284,96.9943405 87.8943119,96.0927105 87.8943119,96.0927105 C86.2913761,99.0647503 84.2877064,101.803034 81.8833028,104.207381 L59.2084404,126.881707 C52.6965138,133.39348 43.9805505,137 34.6634862,137 C25.3798165,137 16.6638532,133.426873 10.1185321,126.881707 C3.6066055,120.369935 0,111.620784 0,102.337333 C0,93.0538833 3.57321101,84.3381261 10.1185321,77.7929598 L32.7933945,55.1186336 C35.4649541,52.4471371 38.5706422,50.2431525 41.9434862,48.5734672 C43.9805505,47.5716561 46.1511927,46.7702071 48.3886239,46.1691204 C48.7559633,46.0689393 49.0899083,45.9687582 49.4572477,45.9019708 C51.227156,45.5012463 52.9970642,45.2340967 54.800367,45.1005219 C56.8805158,44.9387539 58.9712484,44.9722943 61.0451376,45.200703 C61.679633,45.2674904 62.2807339,45.3676715 62.9152294,45.4678526 C70.0950459,46.6032386 76.8073394,50.0093966 81.9500917,55.1520273 C87.1262385,60.294658 89.8979817,65.8380131 91,72.9174787 C91,72.9174787 89.1966972,74.2198332 86.5251376,75.0212822 C83.853578,75.8227311 81.8833028,75.9563059 81.1152294,75.9896996 C80.347156,70.9806438 78.0095413,66.305525 74.4029358,62.6990048 C70.2954128,58.591579 64.7853211,56.1204447 58.9412844,55.753114 C58.3401835,55.7197203 57.8726606,55.6863266 57.4051376,55.6863266 C56.3031193,55.6863266 55.1677064,55.753114 54.0322936,55.9200825 C52.3291743,56.1538384 50.6594495,56.5545629 49.0565138,57.1556496 C47.32,57.79013 45.6836697,58.6249727 44.1475229,59.6267838 C42.7783486,60.5284139 41.5093578,61.5636188 40.373945,62.6990048 L17.6990826,85.373331 C13.1574312,89.8814812 10.6862385,95.925742 10.6862385,102.370727 C10.6862385,108.815712 13.1908257,114.859973 17.6990826,119.368123 C22.2073394,123.909667 28.2517431,126.380802 34.6968807,126.380802 C41.1420183,126.380802 47.186422,123.876274 51.6946789,119.368123 L74.3695413,96.6937972 Z M126.851798,10.1072868 C133.361335,16.6453336 137,25.4516825 137,34.7250347 C137,43.9983869 133.4281,52.7046636 126.88518,59.2427105 L104.218635,81.8923729 C101.548056,84.5609634 98.443507,86.7625507 95.0719002,88.4304198 C93.0355833,89.4311412 90.8657373,90.2317184 88.6291269,90.8321513 C86.5594277,91.3992268 84.3895818,91.7328006 82.2531181,91.8995875 C80.1737323,92.0611794 78.0837667,92.0276755 76.0106383,91.7995153 C68.1324285,90.9655808 60.6881878,87.4296983 55.1133529,81.8590155 L55.0465884,81.7923007 C49.8055759,76.5218344 47.0014674,71.1179385 46,63.9461013 C46.8679384,63.5124554 48.8374908,62.6785208 50.7402788,62.1114453 C53.7780631,61.1774386 55.9812913,61.3442256 55.9812913,61.3442256 C56.7864011,66.2465627 59.1097693,70.7731731 62.624358,74.2868898 C66.7303742,78.3898478 72.2384446,80.858294 78.0803375,81.2252252 C78.6812179,81.2585826 79.1485693,81.29194 79.6159208,81.29194 C80.7175348,81.29194 81.8525312,81.2252252 82.9875275,81.0584383 C84.690022,80.8249367 86.3591343,80.3912907 87.961482,79.8242152 C89.6973588,79.1904249 91.3330888,78.3564904 92.868672,77.3557689 C94.2373441,76.4551196 95.5058694,75.4210408 96.6408657,74.2868898 L119.30741,51.6705848 C123.847395,47.1673382 126.317682,41.129652 126.317682,34.6916773 C126.317682,28.2537026 123.814013,22.2160164 119.30741,17.7127699 C114.800807,13.1761659 108.758621,10.7077196 102.315847,10.7077196 C95.8730741,10.7077196 89.8308877,13.2095233 85.3242847,17.7127699 L62.5242113,40.429147 C62.5242113,40.429147 60.0205429,40.0622158 57.1162876,40.0622158 C54.2120323,40.0622158 50.8404255,40.4625044 49.1045488,40.862793 C50.7068966,37.893986 52.7098313,35.1586807 55.1133529,32.7569492 L77.7798973,10.1072868 C84.2894351,3.60259726 93.0355833,0 102.315847,0 C111.596112,0 120.308877,3.56923988 126.851798,10.1072868 Z" id="Combined-Shape"></path>
            </g>
        </g>
    </g>
</svg>