<?xml version="1.0" encoding="UTF-8"?>
<svg width="157px" height="166px" viewBox="0 0 157 166" version="1.1" xmlns="http://www.w3.org/2000/svg" xmlns:xlink="http://www.w3.org/1999/xlink">
    <!-- Generator: Sketch 55.2 (78181) - https://sketchapp.com -->
    <title>md-globe</title>
    <desc>Created with Sketch.</desc>
    <g id="Page-1" stroke="none" stroke-width="1" fill="none" fill-rule="evenodd" opacity="0.045301">
        <g id="website-1" transform="translate(-286.000000, -1477.000000)" fill="#000000" fill-rule="nonzero">
            <g id="md-globe" transform="translate(286.000000, 1477.465035)">
                <path d="M78.5,0 C35.1453558,0 0,36.9890409 0,82.6171329 C0,128.245225 35.1453558,165.234266 78.5,165.234266 C121.854267,165.234266 157,128.245225 157,82.6171329 C157,36.9890409 121.854267,0 78.5,0 Z M70.3669471,152.921135 C55.4734591,151.043582 41.6929351,144.026686 30.9214519,132.690662 C18.2127548,119.315425 11.2141779,101.532484 11.2141779,82.6171329 C11.2141779,65.5892651 16.8888221,49.4813074 27.2915817,36.6772406 C27.5595385,40.0605711 28.2215048,43.687781 28.0520505,46.2798935 C27.4331082,55.7312141 26.5462091,61.646283 31.8034447,69.620028 C33.8508606,72.7261144 34.3539399,77.1779068 35.3510409,80.7725465 C36.3254976,84.2893354 40.2195505,86.1339218 42.9059111,88.3006355 C48.3254303,92.6729884 53.5094495,97.7555309 59.2558005,101.60398 C63.0487091,104.14406 65.4172957,105.407546 64.3065962,110.278779 C63.4132812,114.195149 63.1638173,116.608522 61.2383029,120.098302 C60.6506851,121.162792 63.4563053,128.009687 64.389625,128.992354 C67.2201538,131.970145 70.0280385,134.702072 73.1121827,137.383156 C77.8938894,141.541817 72.647976,146.944501 70.3669471,152.921135 L70.3669471,152.921135 Z M126.078171,132.690662 C116.404178,142.872032 104.301969,149.566006 91.1471803,152.185128 C93.0115553,147.333357 96.3315769,143.021776 99.4108149,140.523402 C102.08925,138.34795 105.443993,134.164266 106.843029,130.850445 C108.240555,127.540993 110.092476,124.672034 111.966663,121.628705 C114.633022,117.299249 105.392288,110.770907 102.398344,109.402958 C95.6601755,106.323881 90.5878678,102.169987 84.5999784,97.7348766 C80.3330505,94.5759628 71.6708774,99.3852333 66.8544495,97.1724446 C60.2566755,94.1406341 54.8213053,88.8726003 49.0862764,84.3270692 C43.1685841,79.6369581 43.4554111,74.1687366 43.4554111,67.2491546 C48.0899303,67.4290851 54.6843077,65.8986822 57.7616587,69.8222016 C58.7327187,71.060267 62.0716106,76.5912457 64.3065962,74.6259113 C66.132476,73.0200407 62.9536034,66.5826567 62.3395673,65.0693333 C60.4506611,60.4165588 66.6434808,58.6017623 69.8132957,55.4464233 C73.9496418,51.3298658 82.8224062,44.8738135 82.1211899,41.9230314 C81.4199736,38.9722492 73.2431418,30.6120309 68.4403005,31.9164283 C67.7209687,32.1118496 61.3843582,39.1045161 60.1600601,40.2019735 C60.1925168,37.919278 60.2249736,35.6373769 60.2581851,33.3550786 C60.2789423,31.9140452 57.7039159,30.4348807 57.8239303,29.505438 C58.1258534,27.1564105 64.3379207,22.893287 65.8837668,21.0224855 C64.8013726,20.31031 61.1065889,16.970274 59.9887187,17.4604161 C57.2808462,18.6480374 54.2231202,19.4662647 51.5160024,20.653886 C51.5160024,19.6648636 51.401649,18.7370097 51.2657837,17.8202772 C56.7181529,15.2817821 62.4695309,13.5247888 68.3659519,12.5963324 L73.6813077,14.8444717 L77.4345889,19.5314052 L81.1799447,23.596327 L84.4535457,24.7064947 L89.6541707,19.5453071 L88.3125,15.8601063 L88.3125,12.5474771 C98.5967548,14.1195858 108.308865,18.1574981 116.814793,24.3839701 C115.293101,24.5269613 113.620825,24.7628968 111.734183,25.0155146 C110.954844,24.5309333 109.955101,24.3108857 109.105565,23.9736648 C111.570012,29.5511157 114.141264,35.0515102 116.753276,40.5550823 C119.543046,46.4336091 125.732469,52.7399178 126.819392,58.9453383 C128.1003,66.2605294 127.211892,72.9048534 127.912353,81.5109371 C128.587151,89.7984683 136.790401,99.2148354 136.790401,99.2148354 C136.790401,99.2148354 140.578404,100.573252 143.728594,100.099792 C140.792392,112.32673 134.771668,123.54002 126.077416,132.690662 L126.078171,132.690662 Z" id="world"></path>
            </g>
        </g>
    </g>
</svg>