<?xml version="1.0" encoding="UTF-8"?>
<svg width="22px" height="22px" viewBox="0 0 22 22" version="1.1" xmlns="http://www.w3.org/2000/svg" xmlns:xlink="http://www.w3.org/1999/xlink">
    <!-- Generator: Sketch 55.2 (78181) - https://sketchapp.com -->
    <title>Group 8</title>
    <desc>Created with Sketch.</desc>
    <defs>
        <polygon id="path-1" points="0.00186040268 18.1015401 3.82823624 18.1015401 3.82823624 22 0.00186040268 22"></polygon>
    </defs>
    <g id="Page-1" stroke="none" stroke-width="1" fill="none" fill-rule="evenodd">
        <g id="website-1" transform="translate(-67.000000, -55.000000)">
            <g id="Group-8" transform="translate(67.000000, 55.000000)">
                <g id="Group-7">
                    <path d="M21.8883758,0.143703401 C20.7722819,1.2724381 19.6966443,2.2519619 18.753302,3.34837007 C17.9762148,4.25126803 17.1244161,4.5444517 15.9443893,4.52783946 C10.9316376,4.4572 5.9174094,4.49790748 0.903624161,4.49790748 L0,4.49790748 L0,0.143703401 L21.8883758,0.143703401 Z" id="Fill-1" fill="#FFFFFF"></path>
                    <path d="M12.9774161,9.13498367 C11.5598188,10.5808476 10.2173758,11.9577184 8.86031544,13.3200721 C8.75577852,13.4249837 8.55039597,13.469732 8.39152349,13.4700313 C5.66057047,13.4743714 2.92961745,13.4676367 0.198516779,13.4607524 C0.153630872,13.4606027 0.109040268,13.4284259 0.011147651,13.3908612 L0.011147651,9.13498367 L12.9774161,9.13498367 Z" id="Fill-3" fill="#FFFFFF"></path>
                    <mask id="mask-2" fill="white">
                        <use xlink:href="#path-1"></use>
                    </mask>
                    <g id="Clip-6"></g>
                    <path d="M0.00186040268,22.0000299 L0.00186040268,18.1015401 L3.82823624,18.1015401 C2.58634362,19.3667646 1.26767248,20.7104109 0.00186040268,22.0000299" id="Fill-5" fill="#FFFFFF" mask="url(#mask-2)"></path>
                </g>
            </g>
        </g>
    </g>
</svg>